ffmpeg started on 2016-11-26 at 16:44:28
Report written to "Output/NVENCh264/results/ffmpeg/sintelll7000k.log"
Command line:
Tools/ffmpeg/ffmpeg -benchmark -y -i Input/y4m/sintel.y4m -c:v h264_nvenc -preset ll -b:v 7000k -an Output/NVENCh264/encoded/sintelll7000k.mkv
ffmpeg version N-82227-gdb23fde Copyright (c) 2000-2016 the FFmpeg developers
  built with gcc 5.4.0 (Ubuntu 5.4.0-6ubuntu1~16.04.2) 20160609
  configuration: --prefix=/home/jaroslav/ffmpeg_build --pkg-config-flags=--static --extra-cflags=-I/home/jaroslav/ffmpeg_build/include --extra-ldflags=-L/home/jaroslav/ffmpeg_build/lib --bindir=/home/jaroslav/bin --enable-gpl --enable-libass --enable-libfdk-aac --enable-libfreetype --enable-libmp3lame --enable-libopus --enable-libtheora --enable-libvorbis --enable-libvpx --enable-libx264 --enable-libx265 --enable-nvenc --enable-libmfx --enable-libxvid --enable-libgsm --enable-libopencore-amrnb --enable-version3 --enable-nonfree
  libavutil      55. 35.100 / 55. 35.100
  libavcodec     57. 66.101 / 57. 66.101
  libavformat    57. 57.100 / 57. 57.100
  libavdevice    57.  2.100 / 57.  2.100
  libavfilter     6. 66.100 /  6. 66.100
  libswscale      4.  3.100 /  4.  3.100
  libswresample   2.  4.100 /  2.  4.100
  libpostproc    54.  2.100 / 54.  2.100
Input #0, yuv4mpegpipe, from 'Input/y4m/sintel.y4m':
  Duration: 00:00:20.83, start: 0.000000, bitrate: 2057307 kb/s
    Stream #0:0: Video: rawvideo (I420 / 0x30323449), yuv420p(progressive), 4096x1744, SAR 1:1 DAR 256:109, 24 fps, 24 tbr, 24 tbn, 24 tbc
[h264_nvenc @ 0x2a4f1c0] The variable bitrate rate-control requires the 'qmin' and/or 'qmax' option set.
Output #0, matroska, to 'Output/NVENCh264/encoded/sintelll7000k.mkv':
  Metadata:
    encoder         : Lavf57.57.100
    Stream #0:0: Video: h264 (h264_nvenc) (Main) (H264 / 0x34363248), yuv420p, 4096x1744 [SAR 1:1 DAR 256:109], q=-1--1, 7000 kb/s, 24 fps, 1k tbn, 24 tbc
    Metadata:
      encoder         : Lavc57.66.101 h264_nvenc
    Side data:
      cpb: bitrate max/min/avg: 0/0/7000000 buffer size: 14000000 vbv_delay: -1
Stream mapping:
  Stream #0:0 -> #0:0 (rawvideo (native) -> h264 (h264_nvenc))
Press [q] to stop, [?] for help
frame=   18 fps=0.0 q=0.0 size=       0kB time=00:00:00.00 bitrate=N/A speed=   0x    frame=   29 fps= 27 q=0.0 size=       0kB time=00:00:00.00 bitrate=N/A speed=   0x    frame=   50 fps= 32 q=39.0 size=       1kB time=00:00:00.79 bitrate=   7.5kbits/s speed=0.505x    frame=   58 fps= 28 q=38.0 size=       1kB time=00:00:01.12 bitrate=   5.3kbits/s speed=0.541x    frame=   79 fps= 30 q=36.0 size=       1kB time=00:00:02.00 bitrate=   3.0kbits/s speed=0.772x    frame=  100 fps= 32 q=37.0 size=       1kB time=00:00:02.87 bitrate=   2.1kbits/s speed=0.926x    frame=  121 fps= 33 q=33.0 size=       1kB time=00:00:03.75 bitrate=   1.6kbits/s speed=1.04x    frame=  139 fps= 20 q=33.0 size=       1kB time=00:00:04.50 bitrate=   1.3kbits/s speed=0.636x    frame=  140 fps= 13 q=32.0 size=       1kB time=00:00:04.54 bitrate=   1.3kbits/s speed=0.43x    frame=  141 fps= 11 q=32.0 size=       1kB time=00:00:04.58 bitrate=   1.3kbits/s speed=0.357x    frame=  162 fps= 12 q=36.0 size=    3993kB time=00:00:05.45 bitrate=5992.2kbits/s speed=0.409x    frame=  183 fps= 13 q=36.0 size=    3993kB time=00:00:06.33 bitrate=5164.4kbits/s speed=0.457x    frame=  204 fps= 14 q=33.0 size=    3993kB time=00:00:07.20 bitrate=4537.6kbits/s speed=0.501x    frame=  225 fps= 15 q=32.0 size=    3993kB time=00:00:08.08 bitrate=4046.5kbits/s speed=0.543x    frame=  246 fps= 16 q=35.0 size=    3993kB time=00:00:08.95 bitrate=3651.3kbits/s speed=0.581x    frame=  267 fps= 17 q=33.0 size=    8312kB time=00:00:09.83 bitrate=6923.8kbits/s speed=0.618x    frame=  287 fps= 17 q=31.0 size=    8312kB time=00:00:10.66 bitrate=6382.5kbits/s speed=0.65x    frame=  307 fps= 18 q=30.0 size=    9299kB time=00:00:11.50 bitrate=6623.8kbits/s speed=0.671x    frame=  323 fps= 18 q=31.0 size=    9299kB time=00:00:12.16 bitrate=6260.7kbits/s speed=0.689x    frame=  343 fps= 19 q=27.0 size=    9299kB time=00:00:13.00 bitrate=5859.6kbits/s speed=0.716x    frame=  364 fps= 20 q=30.0 size=    9299kB time=00:00:13.87 bitrate=5490.1kbits/s speed=0.743x    frame=  385 fps= 20 q=26.0 size=    9299kB time=00:00:14.75 bitrate=5164.4kbits/s speed=0.769x    frame=  406 fps= 21 q=28.0 size=    9299kB time=00:00:15.62 bitrate=4875.2kbits/s speed=0.794x    frame=  426 fps= 21 q=30.0 size=   13739kB time=00:00:16.45 bitrate=6838.2kbits/s speed=0.815x    frame=  447 fps= 22 q=30.0 size=   13739kB time=00:00:17.33 bitrate=6493.0kbits/s speed=0.837x    frame=  468 fps= 22 q=32.0 size=   14873kB time=00:00:18.20 bitrate=6691.2kbits/s speed=0.858x    frame=  485 fps= 22 q=31.0 size=   14873kB time=00:00:18.91 bitrate=6440.4kbits/s speed=0.869x    frame=  497 fps= 22 q=31.0 size=   14873kB time=00:00:19.41 bitrate=6274.6kbits/s speed=0.872x    frame=  500 fps= 22 q=32.0 Lsize=   17805kB time=00:00:20.79 bitrate=7014.8kbits/s speed=0.929x    
video:17800kB audio:0kB subtitle:0kB other streams:0kB global headers:0kB muxing overhead: 0.027195%
bench: utime=0.936s
bench: maxrss=1191944kB
